<?xml version="1.0" encoding="UTF-8"?>
<svg id="logo" xmlns="http://www.w3.org/2000/svg" viewBox="0 0 1059.27 244.1">
  <defs>
    <style>
      .cls-1 {
        fill: #1d3744;
        stroke-width: 0px;
      }
    </style>
  </defs>
  <path class="cls-1" d="M469.98,173.86c-19.84,0-35.12-15.11-35.12-35.12v-68.5h10.15v68.5c0,14.22,10.74,24.97,24.97,24.97h1.74v10.15h-1.74Z"/>
  <path class="cls-1" d="M504.83,173.86c-19.37,0-35.12-15.75-35.12-35.12s15.75-35.12,35.12-35.12c19.36,0,35.12,15.75,35.12,35.12,0,10.85-4.9,20.91-13.43,27.62-5.98,4.7-13.17,7.29-20.78,7.49-.3,0-.61.01-.91.01ZM504.83,113.77c-13.77,0-24.97,11.2-24.97,24.97s11.2,24.97,24.97,24.97,24.97-11.2,24.97-24.97-11.2-24.97-24.97-24.97Z"/>
  <path class="cls-1" d="M725.17,173.86c-19.37,0-35.12-15.75-35.12-35.12s15.75-35.12,35.12-35.12,35.12,15.75,35.12,35.12c0,10.85-4.9,20.91-13.43,27.62-5.99,4.7-13.17,7.29-20.78,7.49-.3,0-.61.01-.91.01ZM725.17,113.77c-13.77,0-24.97,11.2-24.97,24.97s11.2,24.97,24.97,24.97,24.97-11.2,24.97-24.97-11.2-24.97-24.97-24.97Z"/>
  <path class="cls-1" d="M125.62,155.54c-5.55,5.26-11.58,8.17-20.26,8.17-13.77,0-24.97-11.2-24.97-24.97s11.2-24.97,24.97-24.97h1.74v-10.15h-1.74c-19.36,0-35.12,15.75-35.12,35.12s15.75,35.12,35.12,35.12c7.67,0,15.53-2.9,21.08-7.16l.68-.53v-12.15c-.46.49-.95,1-1.5,1.52Z"/>
  <path class="cls-1" d="M334.1,170.51v-31.77c0-15.23-11.2-24.97-24.97-24.97s-24.97,11.2-24.97,24.97v27.43h-10.15v-27.43c0-13.77-11.2-24.97-24.97-24.97s-24.97,9.74-24.97,24.97v31.77h-10.15v-31.77c0-21.43,15.75-35.12,35.12-35.12,12.47,0,23.7,6.41,30.05,16.93,6.34-10.52,17.58-16.93,30.05-16.93,19.36,0,35.12,13.69,35.12,35.12v31.77h-10.15Z"/>
  <path class="cls-1" d="M389.25,173.86c-19.36,0-35.12-12.77-35.12-35.12v-31.79h10.15v31.79c0,14.92,11.01,24.97,24.97,24.97s24.97-10.05,24.97-24.97v-31.79h10.15v31.79c0,22.35-15.75,35.12-35.12,35.12Z"/>
  <path class="cls-1" d="M770.17,170.52v-31.78c0-19.37,15.75-35.12,35.12-35.12h15.09v10.15h-15.09c-13.77,0-24.97,12.12-24.97,25.89v30.86h-10.15Z"/>
  <path class="cls-1" d="M865.38,170.52c-9.17,0-17.89-3.56-24.42-9.88-.37,2.67-.56,5.4-.56,8.15v1.74h-10.15v-100.28h10.15v62.64c12.42-20.25,34.26-32.59,58.35-32.59h1.74v10.15h-1.74c-24.33,0-46.21,15.23-54.68,37.99,4.53,7.39,12.87,11.95,21.86,11.95h7.85v10.15h-8.41Z"/>
  <path class="cls-1" d="M913.85,173.86c-4.78.01-9.66-1-14.05-2.93-12.8-5.6-21.07-18.23-21.07-32.19v-1.74h10.15v1.74c-.24,13.41,11.54,25.22,24.97,24.97,10.27,0,18.9-5.26,22.78-14.36,1.32-3.11,1.91-6.66,2.19-10.61.26-3.59.57-6.93,1.4-10.03,4.23-15.79,17.53-25.09,33.72-25.09,4.88,0,9.6.99,14.05,2.93l1.04.45v11.62l-2.6-1.51c-3.78-2.19-8.1-3.35-12.48-3.35-10.93,0-20.12,6.79-23.54,16.7-.89,2.57-1.22,5.26-1.43,8.27-.23,3.47-.56,6.82-1.47,9.95-4.32,14.84-17.66,25.17-33.65,25.17Z"/>
  <path class="cls-1" d="M168.92,173.86c-19.36,0-35.12-12.77-35.12-35.12v-31.79h10.15v31.79c0,14.92,11.01,24.97,24.97,24.97s24.97-10.05,24.97-24.97v-31.79h10.15v31.79c0,22.35-15.75,35.12-35.12,35.12Z"/>
  <path class="cls-1" d="M559.98,106.95v31.77c0,15.23,11.2,24.97,24.97,24.97s24.97-11.2,24.97-24.97v-28.43h10.15v28.43c0,13.77,11.2,24.97,24.97,24.97s24.97-9.74,24.97-24.97v-31.77h10.15v31.77c0,21.43-15.75,35.12-35.12,35.12-12.47,0-23.7-6.41-30.05-16.93-6.34,10.52-17.58,16.93-30.05,16.93-19.36,0-35.12-13.69-35.12-35.12v-31.77h10.15Z"/>
</svg>