<?xml version="1.0" encoding="UTF-8"?>
<svg id="logo" xmlns="http://www.w3.org/2000/svg" viewBox="0 0 591.22 470.14">
  <defs>
    <style>
      .cls-1 {
        fill: inherit;
      }
    </style>
  </defs>
  <path class="cls-1" d="M102.57,468.38c-57.94,0-102.57-44.13-102.57-102.57v-92.79h29.64v92.79c0,41.52,31.36,72.93,72.93,72.93h5.07v29.64h-5.07Z"/>
  <path class="cls-1" d="M161.75,151.64c-16.21,15.36-33.83,23.86-59.18,23.86-40.21,0-72.93-32.72-72.93-72.93S62.35,29.64,102.57,29.64h5.07V0h-5.07C46.01,0,0,46.01,0,102.57s46.01,102.57,102.56,102.57c22.39,0,45.34-8.48,61.57-20.9l2-1.56v-35.47c-1.35,1.44-2.79,2.91-4.39,4.43Z"/>
  <path class="cls-1" d="M561.58,195.35v-92.79c0-44.49-32.72-72.93-72.93-72.93s-72.93,32.72-72.93,72.93v80.11h-29.64v-80.11c0-40.21-32.72-72.93-72.93-72.93s-72.93,28.44-72.93,72.93v92.79h-29.64v-92.79C210.59,39.99,256.6,0,313.15,0c36.41,0,69.23,18.72,87.75,49.44C419.42,18.72,452.24,0,488.65,0c56.55,0,102.56,39.99,102.56,102.57v92.79h-29.64Z"/>
  <circle class="cls-1" cx="153.86" cy="453.56" r="16.58"/>
</svg>